[img]http://img4.imageshack.us/img4/9679/towerhiest.jpg[/img]
[code]
Tower Heist 2011 DVDRIP XViD AC3-26K

Imdb: 
http://www.imdb.com/title/tt0471042/

Plot:
When a group of hard working guys find out they've fallen victim to a wealthy business man's Ponzi scheme, they conspire to rob his high-rise residence.

Sources:
THNXS M8! subs included!

Notes:
enjoy!

Greetz:
Xtreme Encode|FYA|ILLUMANTI|CM8|RX|VISION|HDSCENE|NIGHTMAREZ|xTriLL|DTRG|CRYS|REMIXHD|BIDA|RX|REFILL|INSPiRAL|SIC|ZOMBIESZ|HOPE|Anonymous|GooN
To all the people who have helped me :P you know who you are

Anything to offer email us @: 26k@hushmail.me

Video
ID                                       : 0
Format                                   : MPEG-4 Visual
Format profile                           : Advanced Simple@L5
Format settings, BVOP                    : 2
Format settings, QPel                    : No
Format settings, GMC                     : No warppoints
Format settings, Matrix                  : Default (H.263)
Codec ID                                 : XVID
Codec ID/Hint                            : XviD
Duration                                 : 1h 44mn
Bit rate                                 : 1 697 Kbps
Width                                    : 720 pixels
Height                                   : 306 pixels
Display aspect ratio                     : 2.35:1
Frame rate                               : 23.976 fps
Color space                              : YUV
Chroma subsampling                       : 4:2:0
Bit depth                                : 8 bits
Scan type                                : Progressive
Compression mode                         : Lossy
Bits/(Pixel*Frame)                       : 0.321
Stream size                              : 1.24 GiB (79%)
Writing library                          : XviD 63

Audio
ID                                       : 1
Format                                   : AC-3
Format/Info                              : Audio Coding 3
Mode extension                           : CM (complete main)
Codec ID                                 : 2000
Duration                                 : 1h 44mn
Source duration                          : 1h 44mn
Bit rate mode                            : Constant
Bit rate                                 : 448 Kbps
Channel(s)                               : 6 channels
Channel positions                        : Front: L C R, Side: L R, LFE
Sampling rate                            : 48.0 KHz
Bit depth                                : 16 bits
Compression mode                         : Lossy
Stream size                              : 335 MiB (21%)
Alignment                                : Aligned on interleaves
Interleave, duration                     : 42 ms (1.00 video frame)
Language                                 : English

[/code]
Screens:
[img]http://img808.imageshack.us/img808/6505/vlcsnap2012020917h12m32.png[/img]
[img]http://img706.imageshack.us/img706/6958/vlcsnap2012020917h12m38.png[/img]
[img]http://img140.imageshack.us/img140/5758/vlcsnap2012020917h12m43.png[/img]
[img]http://img560.imageshack.us/img560/4646/vlcsnap2012020917h12m47.png[/img]
[img]http://img94.imageshack.us/img94/7851/vlcsnap2012020917h12m53.png[/img]

[img]http://img851.imageshack.us/img851/5503/26ks.jpg[/img]
Thank you smallz for banner!